<?xml version="1.0" encoding="UTF-8" standalone="no"?>
<svg
   version="1.1"
   id="Layer_1"
   x="0px"
   y="0px"
   width="100%"
   viewBox="0 0 270 191"
   enable-background="new 0 0 270 191"
   xml:space="preserve"
   sodipodi:docname="file.svg"
   inkscape:version="1.4.3 (0d15f75042, 2025-12-25)"
   xmlns:inkscape="http://www.inkscape.org/namespaces/inkscape"
   xmlns:sodipodi="http://sodipodi.sourceforge.net/DTD/sodipodi-0.dtd"
   xmlns="http://www.w3.org/2000/svg"
   xmlns:svg="http://www.w3.org/2000/svg"><defs
   id="defs37"><rect
     x="36.135447"
     y="121.35327"
     width="172.94773"
     height="25.314137"
     id="rect37" /></defs><sodipodi:namedview
   id="namedview37"
   pagecolor="#505050"
   bordercolor="#eeeeee"
   borderopacity="1"
   inkscape:showpageshadow="0"
   inkscape:pageopacity="0"
   inkscape:pagecheckerboard="0"
   inkscape:deskcolor="#505050"
   showgrid="false"
   showguides="false"
   inkscape:zoom="3.6592593"
   inkscape:cx="129.80769"
   inkscape:cy="97.697366"
   inkscape:window-width="1896"
   inkscape:window-height="1002"
   inkscape:window-x="0"
   inkscape:window-y="0"
   inkscape:window-maximized="1"
   inkscape:current-layer="Layer_1"><inkscape:grid
     id="grid37"
     units="cm"
     originx="0"
     originy="0"
     spacingx="1"
     spacingy="1"
     empcolor="#0099e5"
     empopacity="0.30196078"
     color="#0099e5"
     opacity="0.14901961"
     empspacing="0"
     enabled="true"
     visible="false"
     dotted="false" /><sodipodi:guide
     position="184,77"
     orientation="0,-1"
     id="guide6"
     inkscape:locked="false" /><inkscape:grid
     id="grid6"
     units="px"
     originx="0"
     originy="0"
     spacingx="1"
     spacingy="1"
     empcolor="#0099e5"
     empopacity="0.30196078"
     color="#0099e5"
     opacity="0.14901961"
     empspacing="5"
     enabled="true"
     visible="false" /></sodipodi:namedview>





































<g
   id="text37"
   style="font-family:Mon;-inkscape-font-specification:Mon;white-space:pre;fill:#2b4157;stroke-width:1.00157"
   transform="matrix(3.0439105,0,0,3.1962738,-90.284459,-260.01596)"
   aria-label="ALU FORMA"><path
     style="font-weight:bold;font-size:12px;font-family:Montserrat;-inkscape-font-specification:'Montserrat Bold'"
     d="m 36.026766,132.38264 3.744,-8.4 h 1.92 l 3.756,8.4 h -2.04 l -0.744,-1.8 h -3.9 l -0.744,1.8 z m 3.348,-3.276 h 2.676 l -1.332,-3.204 z m 6.948009,3.276 v -8.4 h 1.944 v 6.816 h 4.212 v 1.584 z m 10.871991,0.144 q -1.788,0 -2.796,-0.996 -1.008,-0.996 -1.008,-2.844 v -4.704 h 1.944 v 4.632 q 0,1.2 0.492,1.728 0.492,0.528 1.38,0.528 0.888,0 1.38,-0.528 0.492,-0.528 0.492,-1.728 v -4.632 h 1.92 v 4.704 q 0,1.848 -1.008,2.844 -1.008,0.996 -2.796,0.996 z m 9.120013,-0.144 v -8.4 h 6.348 v 1.56 h -4.404 v 2.22 h 3.888 v 1.56 h -3.888 v 3.06 z m 11.652,0.144 q -0.996,0 -1.836,-0.324 -0.828,-0.324 -1.452,-0.912 -0.624,-0.588 -0.972,-1.38 -0.336,-0.792 -0.336,-1.728 0,-0.936 0.336,-1.728 0.348,-0.792 0.972,-1.38 0.624,-0.588 1.452,-0.912 0.84,-0.324 1.836,-0.324 0.996,0 1.824,0.324 0.84,0.324 1.464,0.912 0.624,0.576 0.96,1.38 0.348,0.792 0.348,1.728 0,0.936 -0.348,1.74 -0.336,0.792 -0.96,1.38 -0.624,0.576 -1.464,0.9 -0.828,0.324 -1.824,0.324 z m 0,-1.656 q 0.744,0 1.332,-0.336 0.6,-0.348 0.948,-0.948 0.348,-0.612 0.348,-1.404 0,-0.792 -0.348,-1.392 -0.348,-0.612 -0.948,-0.948 -0.588,-0.348 -1.332,-0.348 -0.744,0 -1.344,0.348 -0.588,0.336 -0.936,0.948 -0.348,0.6 -0.348,1.392 0,0.792 0.348,1.404 0.348,0.6 0.936,0.948 0.6,0.336 1.344,0.336 z m 6.059998,1.512 v -8.4 h 3.588 q 1.752,0 2.724,0.816 0.972,0.816 0.972,2.232 0,0.936 -0.456,1.62 -0.444,0.672 -1.26,1.032 l 1.872,2.7 h -2.088 l -1.62,-2.34 q -0.048,0 -0.096,0 h -1.692 v 2.34 z m 1.944,-3.888 h 1.584 q 0.888,0 1.332,-0.384 0.456,-0.396 0.456,-1.08 0,-0.696 -0.456,-1.08 -0.444,-0.384 -1.332,-0.384 h -1.584 z"
     id="path1" /><path
     id="rect5"
     style="opacity:1;fill:#2b4157;stroke-width:1.38029"
     d="m 191.50315,146.49065 v 17.91563 h 6.20157 v -12.40313 z m 28.94064,0 -6.20156,5.5125 v 12.40313 h 6.20156 z"
     transform="matrix(0.32852477,0,0,0.31286431,29.660681,81.349714)" /><path
     id="rect6"
     style="opacity:1;fill:#13a5e4;stroke-width:1.38029"
     d="m 191.50315,134.08752 v 8.26875 l 14.46763,12.39774 v 0.005 l 0.003,-0.003 0.003,0.003 v -0.005 l 14.46763,-12.39774 v -8.26875 l -14.47032,12.40044 z"
     transform="matrix(0.32852477,0,0,0.31286431,29.660681,81.349714)" /><path
     style="font-weight:bold;font-size:12px;font-family:Montserrat;-inkscape-font-specification:'Montserrat Bold'"
     d="m 102.62678,132.38264 3.744,-8.4 h 1.92 l 3.756,8.4 h -2.04 l -0.744,-1.8 h -3.9 l -0.744,1.8 z m 3.348,-3.276 h 2.676 l -1.332,-3.204 z"
     id="path3" /><path
     fill="#2b4157"
     opacity="1"
     stroke="none"
     d="M 97.10155,109.28126 96.96197,33.722435 172.89846,33.484347 V 109.28126 M 110.8828,95.5 h 48.2344 V 47.265603 h -48.2344 z"
     id="path26"
     sodipodi:nodetypes="ccccccccc"
     style="stroke-width:1.37813"
     transform="matrix(0.32852477,0,0,0.31286431,29.660681,81.349714)" /><path
     fill="#13a5e4"
     opacity="1"
     stroke="none"
     d="m 112.26093,48.643729 h 45.47815 l -11.02501,11.025005 h -23.42814 v 23.428135 l -11.025,11.025005 z"
     id="path34"
     sodipodi:nodetypes="ccccccc"
     style="stroke-width:1.37813"
     transform="matrix(0.32852477,0,0,0.31286431,29.660681,81.349714)" /><path
     fill="#30455b"
     opacity="1"
     stroke="none"
     d="m 124.66406,83.096869 22.05001,-22.05001 v 22.05001 z"
     id="path36"
     sodipodi:nodetypes="cccc"
     style="stroke-width:1.37813"
     transform="matrix(0.32852477,0,0,0.31286431,29.660681,81.349714)" /></g></svg>
